/* XPM */
static char *documents[] = {
/* columns rows colors chars-per-pixel */
"32 32 13 1 ",
"  c None",
". c #868686",
"X c #C0C0C0",
"o c #5F5F5F",
"O c white",
"+ c #808000",
"@ c #FFFF99",
"# c #003399",
"$ c #CCCC66",
"% c #E7E7D6",
"& c #040404",
"* c #999900",
"= c #FFCC99",
/* pixels */
"                                ",
"                                ",
"                                ",
"                                ",
"                                ",
"                .               ",
"               .Xo              ",
"              .OOXo             ",
"         ++++.OOOOXo            ",
"        +@@@.OOO#OOXo           ",
"       +@$$.OOO#O#OOXo+++       ",
"       +@$.%%%#%#%#%%Xo$$+      ",
"       +@.XXX#X#X#X#XXXo$+&     ",
"     *****************XXo+&     ",
"    *OOOOOOOOOOOOOOOO$*%Xo&     ",
"    *O@@@@@@@@@=@=@=@=*X%Xo     ",
"    *O@=@@@=@=@@@@=@@=$*%%Xo    ",
"     *O@@@@@@@@@=@@==@=*XX&     ",
"     *O@=@@=@=@=@==@=@=$*&&     ",
"     *O@@@=@@@@@=@==@=@=*&&     ",
"      *O@@@=@=@=@=@=@===*&&     ",
"      *O=@@@=@=@=@=@=@=@$&&     ",
"      *O@=@=@=@=@=@===@==&&     ",
"       *@@=@=@=@===@=@===*&     ",
"       *=================*&     ",
"       *******************&     ",
"        &&&&&&&&&&&&&&&&&&      ",
"                                ",
"                                ",
"                                ",
"                                ",
"                                "
};
