/* XPM */
static char *favorites[] = {
/* columns rows colors chars-per-pixel */
"32 32 8 1 ",
"  c None",
". c #999900",
"X c white",
"o c #FFFF99",
"O c #CCCC66",
"+ c black",
"@ c #FFCC99",
"# c blue",
/* pixels */
"                                ",
"                                ",
"                                ",
"                                ",
"                                ",
"                                ",
"       ........                 ",
"      .XooooooO+                ",
"     .XooooooooO+               ",
"    .OOOOOOOOOOOO.........      ",
"    .XXXXXXXXXXXXXXXXXXXXX+     ",
"    .Xooooooooooo@oooo@o@o.+    ",
"    .Xooo@ooo@oooooo@oo@o@.+    ",
"    .Xooooooooo#O@oooo@ooo.+    ",
"    .Xoooooo#oo#Oo#@o@o@o@.+    ",
"    .XooooooO#o#O#Oo@o@o@o.+    ",
"    .Xooo@oooO###Ooo@@@@o@.+    ",
"    .Xo@ooo####o####o@oo@o.+    ",
"    .XoooooOOO###OOO@o@@o@.+    ",
"    .Xooo@ooo#O#O#o@o@o@o@.+    ",
"    .X@oooo@#O@#OO#o@@@o@@.+    ",
"    .Xo@ooooo@o#Oo@@@o@@@@.+    ",
"    .Xooo@oo@o@@o@o@@@@@@@.+    ",
"    .X@o@oo@oo@o@o@o@o@@o@.+    ",
"    .......................+    ",
"     ++++++++++++++++++++++     ",
"                                ",
"                                ",
"                                ",
"                                ",
"                                ",
"                                "
};
