/* XPM */
static char *find1[] = {
/* columns rows colors chars-per-pixel */
"32 32 29 1 ",
"  c None",
". c #868686",
"X c gray60",
"o c #FFFBF0",
"O c #555555",
"+ c #E7E7D6",
"@ c #C0C0C0",
"# c #777777",
"$ c #EAEAEA",
"% c #99CCFF",
"& c #99FFFF",
"* c #CCFFFF",
"= c #6666FF",
"- c gray30",
"; c gray20",
": c #CCFFCC",
"> c #33FFFF",
", c gray11",
"< c gray80",
"1 c #CCECFF",
"2 c gray40",
"3 c #B2B2B2",
"4 c #000066",
"5 c black",
"6 c #0066FF",
"7 c cyan",
"8 c #0099FF",
"9 c #003399",
"0 c white",
/* pixels */
"                                ",
"                                ",
"                                ",
"                                ",
"          ............X         ",
"          .oooooooooooXO        ",
"          .++oooooooooX@O       ",
"       .#####+$oooooooX+@O      ",
"      ##%%%%%##+$oooooXo+@O     ",
"     #%&@+*XX=##+++$oo--;;;;    ",
"    .%*o@+****%#XXXXoo+@X##O    ",
"    #*$o@+:>>>>.#X+$ooo+@X#O    ",
"    #*oo@+*XXXX%#X+++++++@XO    ",
"    #**o@+*>>>>%,XXXXXXXo+@O    ",
"    #**$@+:XXXX<,X++++++oo@O    ",
"    #%$1@+*>>>%%,XXXXXXXoo<O    ",
"     #&:@+*XX=%#,X++++++oo<O    ",
"     #%&@+*:<%#,2.XXXXXXoo<O    ",
"      ##%%%%%#,324.<++++oo<O    ",
"        #,,,,2o3564.XXXXoo<O    ",
"          #X<<257864.<+ooo<O    ",
"          #++++987864#<+oo<O    ",
"          #ooooo987864.<+o<O    ",
"          #oooooo987864.<+<O    ",
"          #<<<<<<<987864.XXO    ",
"          #OOOOOOOO987864OO-    ",
"                    98864       ",
"                     999        ",
"                                ",
"                                ",
"                                ",
"                                "
};
