/* XPM */
static char * fvwm98_xpm[] = {
"118 25 86 1",
" 	c None",
".	c #007BFF",
"+	c #FFFFFF",
"@	c #72B6FF",
"#	c #67B0FF",
"$	c #90C5FF",
"%	c #F0F7FF",
"&	c #EDF5FF",
"*	c #61ADFF",
"=	c #F9FCFF",
"-	c #DDEDFF",
";	c #EFF6FF",
">	c #76B8FF",
",	c #2B91FF",
"'	c #248EFF",
")	c #64AFFF",
"!	c #B6D9FF",
"~	c #9ACBFF",
"{	c #E7F2FF",
"]	c #CFE6FF",
"^	c #4DA2FF",
"/	c #BADBFF",
"(	c #97C9FF",
"_	c #B8DAFF",
":	c #ECF5FF",
"<	c #9ECCFF",
"[	c #B1D7FF",
"}	c #98C9FF",
"|	c #62ADFF",
"1	c #B3D8FF",
"2	c #208BFF",
"3	c #A7D1FF",
"4	c #E1EFFF",
"5	c #F2F8FF",
"6	c #FAFCFF",
"7	c #F3F8FF",
"8	c #1F8BFF",
"9	c #CBE4FF",
"0	c #8AC2FF",
"a	c #F7FBFF",
"b	c #A6D1FF",
"c	c #6CB3FF",
"d	c #94C7FF",
"e	c #449EFF",
"f	c #95C8FF",
"g	c #49A1FF",
"h	c #D3E8FF",
"i	c #E4F1FF",
"j	c #EEF6FF",
"k	c #3998FF",
"l	c #238DFF",
"m	c #A4CFFF",
"n	c #CDE5FF",
"o	c #66B0FF",
"p	c #81BEFF",
"q	c #EAF4FF",
"r	c #C3E0FF",
"s	c #C6E1FF",
"t	c #A0CEFF",
"u	c #92C6FF",
"v	c #D1E7FF",
"w	c #479FFF",
"x	c #50A4FF",
"y	c #C9E3FF",
"z	c #D6EAFF",
"A	c #8CC3FF",
"B	c #268FFF",
"C	c #59A9FF",
"D	c #7BBAFF",
"E	c #C7E2FF",
"F	c #DFEEFF",
"G	c #228CFF",
"H	c #D2E7FF",
"I	c #5CAAFF",
"J	c #9DCCFF",
"K	c #FCFDFF",
"L	c #7EBCFF",
"M	c #D5E9FF",
"N	c #58A8FF",
"O	c #88C1FF",
"P	c #F1F7FF",
"Q	c #C0DEFF",
"R	c #BEDDFF",
"S	c #84BFFF",
"T	c #D9EBFF",
"U	c #F6FAFF",
"                     ...........................                                                                      ",
"                     ...........................                                                                      ",
"                     ...........................                                                                      ",
"                     ...........................                                                                      ",
"                     ...........................                                                                      ",
"                     ...........................                                                                      ",
" +++++++++++++++++++++++@..#+++++++++++++#..$++%   ++++++++++++++      ++++++++ +++     ++++++++          +++++++++   ",
" +++++++++++++++++++++++@..#+++++++++++++#..&+++*  ++++++++++++++      ++++++++ +++   ++++++++++++      ++++++++++++  ",
"   +++++     =++-+++++;>,..')!+++~{++++])'.^++++/  (_+++:  +++++++    +++++++   +++  +++++    ++++      +++++   +++++ ",
"   ++++       ++<[++++}......|++1.2++++|...3+++++    4+5   6++++++    +++++++   +++  ++++      ++++    +++++     ++++ ",
"   ++++       ++< 7+++;......]++8..9+++~...:+++++0   a+    6+++++++  +++ ++++   +++  ++++      ++++     ++++     ++++ ",
"   ++++        b  c++++d....e++f...>+++]..g++++++h   ++    6+++++++  +++ ++++   ++   ++++      ++++     +++++   ++++  ",
"   ++++++++++      i+++j...._++8...k++++l.m++d++++  n+%    6++ ++++  ++  ++++   ++   +++++     +++++     ++++++++++   ",
"   ++++++++++      o++++$..'++(.....i+++p.q+r.++++$ q+s    6++ ++++++++  ++++        +++++++++++++++    +++++++++++++ ",
"   +++++            4+++&..t++2.....u+++vw++x.y+++z ++     6++  ++++++   ++++         ++++++++++++++   +++++    ++++++",
"   ++++             *++++AB++~......C++++h+:..D++++E+a     6++  ++++++   ++++           +++++  ++++    +++++     +++++",
"   ++++              F+++:m++G.......++++++3...%+++++H     6++  ++++++   ++++        ++        ++++    +++++     +++++",
"   +++++             I++++++J........1+++++^...!+++++      K++   ++++    ++++        ++       +++++    +++++     +++++",
"  ++++++             .-+++++l........L++++M....I+++++    F=++++  ++++  +++++++       +++     +++++     +++++++ ++++++ ",
" ++++++++6           .N++++t.........l++++O.....P+++-    5+++++   ++   ++++++++      ++++++++++++       ++++++++++++  ",
"  +++++++            ..drQR'..........t///B.....ShzT     FU6+++   ++   +++++++        +++++++++           +++++++++   ",
"                     ...........................                                                                      ",
"                     ...........................                                                                      ",
"                     ...........................                                                                      ",
"                     ...........................                                                                      "};
