/* XPM */
static char *help[] = {
/* columns rows colors chars-per-pixel */
"32 32 29 1 ",
"  c None",
". c #800080",
"X c #330033",
"o c #FF99FF",
"O c #CC00CC",
"+ c #660066",
"@ c #990099",
"# c #993366",
"$ c #CC6666",
"% c #CC9933",
"& c #996666",
"* c black",
"= c #FFCC00",
"- c yellow",
"; c #999933",
": c #996633",
"> c #CC0099",
", c #5F5F5F",
"< c gray40",
"1 c #777777",
"2 c #660033",
"3 c gray60",
"4 c #868686",
"5 c #C0C0C0",
"6 c #ADA990",
"7 c #E7E7D6",
"8 c #D60093",
"9 c #B2B2B2",
"0 c white",
/* pixels */
"                                ",
"                                ",
"                                ",
"                                ",
"                                ",
"               .X               ",
"              .oO+X             ",
"             .oOO@@+X           ",
"            .oOO@O@@.+X         ",
"           .oO#$%&#@@.++*       ",
"          .oO$=---=;+...++*     ",
"         .oOOO$+++=-:+...+*     ",
"        .oOOOO>@@@#-:+..+*      ",
"       .oOOOO@:=---%+..+*.      ",
"      .oOOOOO=-%::++...*,.      ",
"     .oOOO@OOO++++.@..*,,.*     ",
"    ...OO@O%-%@.@.@..*<1,.*     ",
"    .23..O@@+++@.@..*<44.*      ",
"    .+353..@@.@.@..*<43.*       ",
"    .+35563..@.@..*<43.*        ",
"    .23777753++..*136.*         ",
"     ..85777794+*366.*          ",
"       ..8577775366.*           ",
"         ..8577755.*            ",
"           ..>575.*             ",
"             +.8.*              ",
"               +*               ",
"                                ",
"                                ",
"                                ",
"                                ",
"                                "
};
