/* XPM */
static char *logoff[] = {
/* columns rows colors chars-per-pixel */
"32 32 22 1 ",
"  c None",
". c #868686",
"X c black",
"o c #F1F1F1",
"O c #B2B2B2",
"+ c #F8F8F8",
"@ c #C0C0C0",
"# c #777777",
"$ c #009933",
"% c green",
"& c #CC0033",
"* c #006633",
"= c #CCCC00",
"- c #A50021",
"; c red",
": c gray3",
"> c yellow",
", c blue",
"< c navy",
"1 c #808000",
"2 c #999900",
"3 c white",
/* pixels */
"                                ",
"                                ",
"                                ",
"                                ",
"                .X              ",
"               .oOX             ",
"              .o++@X            ",
"             #+@.X+OX           ",
"            .+@X$$X+@X          ",
"           .+@XX$%$X+@X         ",
"          .++.&&.*X=X+OX        ",
"          .++X-;&:=>=X@@X       ",
"          .++@X&X,.=X@+@X       ",
"          .++;@X,,,<@+@X        ",
"          .@;+,OX,X@+@X         ",
"          .@O,+.@X@+OX          ",
"         XXXX@.@+O+@X           ",
"        1X...XXO@@@X            ",
"       1X#O>>1XXXXX             ",
"      1>X.>>>>1                 ",
"     1>>X.1=>=>11111111111      ",
"     1>>1XXX=>=>>>>>>>>>>>X     ",
"     1>=1++X===========2=22X    ",
"     1===XX====2222=22=22=2X    ",
"     1=========::::2XX2X:2X     ",
"      X==2=222X    X  X  X      ",
"       X2=2=2:                  ",
"        XXXXX                   ",
"                                ",
"                                ",
"                                ",
"                                "
};
