/* XPM */
static char *mini_xournal_4[] = {
/* columns rows colors chars-per-pixel */
"16 16 67 1 ",
"  c None",
". c #4B4653",
"X c #4F4A56",
"o c #5B5662",
"O c #5C5863",
"+ c #5E5A65",
"@ c #6F6B75",
"# c #736F78",
"$ c #79757E",
"% c #A65B27",
"& c #E86809",
"* c #F16C01",
"= c #F06C03",
"- c #F36D02",
"; c #FB851A",
": c #F09C1D",
"> c #FC8A21",
", c #FD8F27",
"< c #FE942E",
"1 c #EC8436",
"2 c #EB8B44",
"3 c #EC9553",
"4 c #E9A156",
"5 c #FEB361",
"6 c #FDB96C",
"7 c #FDBF78",
"8 c #86838B",
"9 c #A19EA4",
"0 c #A5A3A8",
"q c #A6A3A9",
"w c #A7A5AA",
"e c #ABA9AD",
"r c #B0ADB2",
"t c #B3B0B4",
"y c #B3B0B5",
"u c #BDBABE",
"i c #CFC7AE",
"p c #F1CFB6",
"a c #F9DAB5",
"s c #F0D2BA",
"d c #F7DCBB",
"f c #F2DBBE",
"g c #F4E5AB",
"h c #F0E2BC",
"j c #C6C4C7",
"k c #C9C7C9",
"l c #CDCBCD",
"z c #D1CECF",
"x c #D4D2D3",
"c c #DCDBDB",
"v c #DDDBDC",
"b c #DEDDDD",
"n c #F2D8C5",
"m c #F6E5CE",
"M c #E1E0E0",
"N c #E5E3E3",
"B c #E9E8E7",
"V c #EBEAE9",
"C c #EFEEED",
"Z c #F3EEE8",
"A c #F4F1ED",
"S c #F2F1F0",
"D c #F4F2F1",
"F c #F4F3F1",
"G c #F4F3F2",
"H c #F5F4F2",
"J c #F5F4F3",
/* pixels */
"                ",
"                ",
"  GSSSSASSSSZ4% ",
"  HGGGSSGGGGa;& ",
"  HGGGGGSSSA5-  ",
"  GSSSSSSSSd>3  ",
"  GSu+wSr.z6-n  ",
"  GVNxOvkbf,2G  ",
"  HGGGotGG7-pH  ",
"  HGGG80Gm<1GH  ",
"  GSSc0@Sg:sSG  ",
"  GjltCXMihSSG  ",
"  Ge#BS9$cSSGH  ",
"  HHHHHHHHHHHH  ",
"                ",
"                "
};
