/* XPM */
static char *VBox_xpm[] = {
/* columns rows colors chars-per-pixel */
"16 16 136 2 ",
"   c None",
".  c #0640B0",
"X  c #0845B5",
"o  c #0F50BF",
"O  c #094AC1",
"+  c #0F50C0",
"@  c #1158CB",
"#  c #115DCE",
"$  c #115FCF",
"%  c #1265D1",
"&  c #1268D3",
"*  c #136ED4",
"=  c #166DD4",
"-  c #1370D6",
";  c #1375D8",
":  c #1477D9",
">  c #147BDB",
",  c #397AD2",
"<  c #1581DF",
"1  c #1588E6",
"2  c #338CE2",
"3  c #2A94ED",
"4  c #3690E4",
"5  c #3892E5",
"6  c #3995E6",
"7  c #3796ED",
"8  c #359AED",
"9  c #3999E9",
"0  c #399BEA",
"q  c #3A9EEB",
"w  c #2A8AFF",
"e  c #2A8BFF",
"r  c #2B90FF",
"t  c #2B92FF",
"y  c #2B93FF",
"u  c #2C94FF",
"i  c #2C99FF",
"p  c #2D9CFF",
"a  c #3792FF",
"s  c #309BFF",
"d  c #309EFF",
"f  c #3899FF",
"g  c #3B99FF",
"h  c #3BA2ED",
"j  c #3BA3EE",
"k  c #2FA4FF",
"l  c #3BA5F0",
"z  c #31ACFF",
"x  c #3EAAFF",
"c  c #3AAFFF",
"v  c #3DB1FF",
"b  c #4190ED",
"n  c #40ABF2",
"m  c #47AEFF",
"M  c #55A1FF",
"N  c #5AAFFF",
"B  c #4EB8FF",
"V  c #54B1F2",
"C  c #56B2F2",
"Z  c #58B2F2",
"A  c #58BCFF",
"S  c #6CA1E9",
"D  c #6DA2EB",
"F  c #6EA6EF",
"G  c #6EA9F1",
"H  c #6FAAF1",
"J  c #6FACF1",
"K  c #70AFF1",
"L  c #63B5FF",
"P  c #6AB3FF",
"I  c #67B8FF",
"U  c #71B3F1",
"Y  c #71B5F1",
"T  c #72B8F1",
"R  c #72BAF1",
"E  c #73BDF1",
"W  c #73BFF1",
"Q  c #76B8FF",
"!  c #74BBFF",
"~  c #74BEFF",
"^  c #7ABCFF",
"/  c #73C1F2",
"(  c #70C2FF",
")  c #75C7FF",
"_  c #79C4FF",
"`  c #66D2FB",
"'  c #84BFFF",
"]  c #87C1FF",
"[  c #88C3FF",
"{  c #88C5FF",
"}  c #89C8FF",
"|  c #89CBFF",
" . c #8ACDFF",
".. c #8BCFFF",
"X. c #8DCDFF",
"o. c #8CD2FF",
"O. c #8CD4FF",
"+. c #92D2FF",
"@. c #9ED2FF",
"#. c #92DAFF",
"$. c #AEDBFF",
"%. c #B8D7FF",
"&. c #B2DAFF",
"*. c #B5DAFF",
"=. c #B0DCFF",
"-. c #B5DCFF",
";. c #B8D8FF",
":. c #B8DAFF",
">. c #B8DBFF",
",. c #B9DDFF",
"<. c #B9DEFF",
"1. c #BDDEFF",
"2. c #A1E6FF",
"3. c #A5E8FF",
"4. c #A3ECFF",
"5. c #BAE1FF",
"6. c #BAE3FF",
"7. c #C6E1FF",
"8. c #C5E6FF",
"9. c #CBE6FF",
"0. c #D0E9FF",
"q. c #D4E9FF",
"w. c #D4ECFF",
"e. c #D8EDFF",
"r. c #DEF1FF",
"t. c #E1F1FF",
"y. c #E4F2FF",
"u. c #E7F2FF",
"i. c #E6F3FF",
"p. c #E9F4FF",
"a. c #E8F5FF",
"s. c #E9F5FF",
"d. c #E8F6FF",
"f. c #FBFDFF",
"g. c #FCFEFF",
"h. c white",
/* pixels */
"  7 Z C C C C C C C C C C C 3   ",
"8 4.3.2.2.2.2.2.2.2.2.2.2.2.` 1 ",
"n #.d.6.6.6.6.6.6.6.6.6.6.d./ < ",
"l O.6.z z z z A z v B z z 6.E > ",
"j o.6.z z z z 8.c ) +.z z 6.E : ",
"j o.6.k k k x f.( =.w.k k 6.T ; ",
"q ..d.6.X.k _ e.$.r.t.m k 6.T - ",
"0 ..0.~ y.d -.I d.-.@.} p ,.Y * ",
"0 } ,.i 1.L y.s &.Q N 9.i ,.U & ",
"6 } >.y ^ q.*.y P g u d.g.g.K % ",
"4 { >.y g g.Q y y y y y y >.J # ",
"4 [ >.e e 7.a e e e e e e >.G # ",
"4 ] >.e e M e e e e e e e >.G # ",
"2 ' y.%.%.%.%.%.%.%.%.%.%.y.F @ ",
"= b D D D D D D D D D D D D , X ",
"  O + + + + + + + + + + + o .   "
};
