/* XPM */
static char *firefox_xpm[] = {
/* columns rows colors chars-per-pixel */
"16 16 152 2 ",
"   c None",
".  c #FF473D",
"X  c #FF453E",
"o  c #FF443F",
"O  c #FF463E",
"+  c #FF4B3B",
"@  c #FF4C3A",
"#  c #FF4E3B",
"$  c #FF4A3C",
"%  c #F94E3F",
"&  c #FF5535",
"*  c #FF5536",
"=  c #FF5C34",
"-  c #FB5339",
";  c #FF5138",
":  c #FF612E",
">  c #FF622E",
",  c #FF632E",
"<  c #FF6C28",
"1  c #FF7921",
"2  c #FF7A20",
"3  c #FF7E21",
"4  c #F76F32",
"5  c #FF6C35",
"6  c #FF7A37",
"7  c #FF7E36",
"8  c #E71A5D",
"9  c #FF3D43",
"0  c #FF3F42",
"q  c #FF3E43",
"w  c #FF3946",
"e  c #FE3947",
"r  c #FF3A46",
"t  c #FE3C45",
"y  c #F8334B",
"u  c #FE3749",
"i  c #FD354A",
"p  c #FC334D",
"a  c #EC205B",
"s  c #F42953",
"d  c #F42A52",
"f  c #F72D51",
"g  c #F02459",
"h  c #DF0E69",
"j  c #DF0E6A",
"k  c #DE0D6C",
"l  c #E00E6B",
"z  c #E10E6D",
"x  c #E41561",
"c  c #E01064",
"v  c #E21166",
"b  c #E11069",
"n  c #EB1868",
"m  c #E20C70",
"M  c #D74B55",
"N  c #D34B59",
"B  c #FF4141",
"V  c #F74C4C",
"C  c #F3485E",
"Z  c #D5604E",
"A  c #E7634B",
"S  c #FA714B",
"D  c #F87056",
"F  c #FF8619",
"G  c #FF9214",
"H  c #FF9414",
"J  c #FF9118",
"K  c #FFA116",
"L  c #FFA51A",
"P  c #FFAA1C",
"I  c #FF8722",
"U  c #FF9924",
"Y  c #E5823A",
"T  c #FF9234",
"R  c #FF9931",
"E  c #FF923B",
"W  c #FF9C39",
"Q  c #FFAF22",
"!  c #FFB221",
"~  c #FFB523",
"^  c #FFB623",
"/  c #FEB72C",
"(  c #FEA53F",
")  c #FEB436",
"_  c #FFB93D",
"`  c #FFCB32",
"'  c #FFCF3C",
"]  c #FFD137",
"[  c #FFD43B",
"{  c #FFDB3F",
"}  c #DD9F58",
"|  c #F39444",
" . c #FD9243",
".. c #FA8B52",
"X. c #FDAA48",
"o. c #FEB044",
"O. c #FEB54A",
"+. c #EFAF51",
"@. c #DB977B",
"#. c #FFC243",
"$. c #FFC441",
"%. c #FFCA47",
"&. c #FACF46",
"*. c #FED342",
"=. c #FFD343",
"-. c #FFD647",
";. c #FFDF41",
":. c #FDD946",
">. c #FFD946",
",. c #FFDD45",
"<. c #FFDE44",
"1. c #FFE244",
"2. c #FFE444",
"3. c #FFE445",
"4. c #FFE646",
"5. c #FFE647",
"6. c #FEE24B",
"7. c #FFEA49",
"8. c #FFED4B",
"9. c #FFF04D",
"0. c #5E3BB5",
"q. c #593EB5",
"w. c #7F36A7",
"e. c #6841A7",
"r. c #6742A9",
"t. c #773DCE",
"y. c #5B4BC2",
"u. c #6D42C8",
"i. c #6153CF",
"p. c #6A4FD4",
"a. c #6C57DD",
"s. c #7F57EE",
"d. c #725DE8",
"f. c #9C439E",
"g. c #D3748C",
"h. c #D27A94",
"j. c #8C30CB",
"k. c #B43AE1",
"l. c #B83EEA",
"z. c #A040CB",
"x. c #BE56C8",
"c. c #B940DE",
"v. c #A06CD9",
"b. c #8C47E7",
"n. c #9A48ED",
"m. c #9553F9",
"M. c #AB42EB",
"N. c #AA49EE",
"B. c #B443E9",
"V. c #C151C8",
"C. c #B285A4",
"Z. c #D99084",
/* pixels */
"                    9.          ",
"                  8.8.          ",
"                ;.2.7.2.        ",
"    G K E       ] { 2.2.1.      ",
"  2 F J U | k.c.V.h.&.{ ,.>.6.  ",
"  < 2 F H L g.B.l.x.@.' =.-.,.  ",
"  , 3 P ~ ! ~ +.N.M.Z.[ $.%.>.  ",
"  * , I Q } C.v.m.n.z.` _ O.=.  ",
"  $ * , Y u.a.d.s.b.j./ ( o.#.  ",
"  t . ; 4 r.y.i.p.t.f.R  .) X.  ",
"  g 9 . @ Z e.q.0.w.A 7 T W ..  ",
"  l f w 9 . % N M - = 5 6 S D   ",
"    b s i w 9 B . . + @ V C     ",
"      j 8 s p i w w y a n       ",
"        k j c x x c z m         ",
"                                "
};
