/* XPM */
static char *qbittorrent_xpm[] = {
/* columns rows colors chars-per-pixel */
"16 16 172 2 ",
"   c None",
".  c #356EBF",
"X  c #366FC0",
"o  c #3770C1",
"O  c #3971C0",
"+  c #3871C2",
"@  c #3872C2",
"#  c #3972C3",
"$  c #3973C3",
"%  c #3A72C2",
"&  c #3B75C5",
"*  c #3D76C4",
"=  c #3C76C5",
"-  c #3E78C7",
";  c #3F79C8",
":  c #4A7EC7",
">  c #407BC9",
",  c #417CCA",
"<  c #427DCB",
"1  c #447FCC",
"2  c #447FCD",
"3  c #487FCA",
"4  c #4681CE",
"5  c #4782CF",
"6  c #4883D0",
"7  c #4884D0",
"8  c #4A86D2",
"9  c #4B87D3",
"0  c #4E89D3",
"q  c #4C89D4",
"w  c #558BD2",
"e  c #508CD6",
"r  c #538DD6",
"t  c #518ED7",
"y  c #538ED7",
"u  c #588CD1",
"i  c #5C8FD2",
"p  c #598FD4",
"a  c #5A92D7",
"s  c #5390D9",
"d  c #5391D9",
"f  c #5593DB",
"g  c #5793DB",
"h  c #5694DC",
"j  c #5D96DB",
"k  c #5895DD",
"l  c #5996DE",
"z  c #5B98DD",
"x  c #6190D0",
"c  c #6595D5",
"v  c #6799D8",
"b  c #609ADD",
"n  c #679EDE",
"m  c #6C9EDB",
"M  c #6FA1DD",
"N  c #75A1D9",
"B  c #77A1D9",
"V  c #71A4DF",
"C  c #78A2D9",
"Z  c #7DA6DC",
"A  c #7CA7DD",
"S  c #5B9AE1",
"D  c #5E9BE1",
"F  c #5C9BE2",
"G  c #5D9CE2",
"H  c #5D9CE3",
"J  c #5E9DE3",
"K  c #619EE3",
"L  c #659EE0",
"P  c #609FE5",
"I  c #61A0E5",
"U  c #62A1E6",
"Y  c #63A2E7",
"T  c #6AA4E5",
"R  c #6AA6E7",
"E  c #64A3E8",
"W  c #65A4E8",
"Q  c #65A4E9",
"!  c #66A4E8",
"~  c #67A6EA",
"^  c #67A6EB",
"/  c #68A7EB",
"(  c #68A8EC",
")  c #69A8EC",
"_  c #69A9EC",
"`  c #6AA9EC",
"'  c #69AAED",
"]  c #6AAAED",
"[  c #6BABEE",
"{  c #6BACEE",
"}  c #74A8E2",
"|  c #73A9E6",
" . c #77ABE4",
".. c #7EACE2",
"X. c #7AAEE6",
"o. c #78AEE8",
"O. c #7CB2EB",
"+. c #6FAFF0",
"@. c #79B4F1",
"#. c #7BB6F2",
"$. c #82ABDF",
"%. c #84AEE1",
"&. c #86B0E2",
"*. c #87B1E3",
"=. c #84B2E5",
"-. c #87B3E6",
";. c #87B4E6",
":. c #8CB2E1",
">. c #8BB5E6",
",. c #8DB7E8",
"<. c #82B8EF",
"1. c #8EBAE9",
"2. c #8FBBEA",
"3. c #88BAED",
"4. c #8EBAEC",
"5. c #90B6E4",
"6. c #91B8E6",
"7. c #90BBEB",
"8. c #90BDEC",
"9. c #91BFEF",
"0. c #91C0EE",
"q. c #96C3EF",
"w. c #9DC0E8",
"e. c #9EC1E9",
"r. c #98C3EE",
"t. c #96C4F1",
"y. c #98C6F4",
"u. c #9EC8F1",
"i. c #9FC9F3",
"p. c #9AC9F6",
"a. c #A8C2E6",
"s. c #A2C6ED",
"d. c #AAC5E9",
"f. c #ABC6E9",
"g. c #AAC7EB",
"h. c #ADC7E9",
"j. c #A5C8EE",
"k. c #A9C9ED",
"l. c #B3CAE9",
"z. c #B2CFEF",
"x. c #A3CDF5",
"c. c #A5CFF7",
"v. c #ABCEF3",
"b. c #A6D0F7",
"n. c #A9D2F7",
"m. c #AED3F6",
"M. c #B5D3F3",
"N. c #BCD5F1",
"B. c #BAD9F7",
"V. c #B0D5F8",
"C. c #B2D7FA",
"Z. c #B2D8F8",
"A. c #B3D8F8",
"S. c #B3D8F9",
"D. c #B4DAFA",
"F. c #BFDFFB",
"G. c #C2D8F1",
"H. c #C3DDF6",
"J. c #CDDEF4",
"K. c #C4DFF8",
"L. c #C6E1F9",
"P. c #C9E2F9",
"I. c #C8E4FB",
"U. c #CAE4FA",
"Y. c #CBE5FB",
"T. c #CBE6FC",
"R. c #CDE7FD",
"E. c #CEE8FD",
"W. c #DAE7F6",
"Q. c #DBE7F6",
"!. c #DCE7F5",
"~. c #E3ECF7",
/* pixels */
"          E.C.b.c.C.R.          ",
"      T.p.+.] ] ] ^ ^ 9.Y.      ",
"    F.@.{ ] ] ^ I P J F R B.    ",
"  T.@.] ] ^ ^ I 4.j.S j f n L.  ",
"  y.] / E I J F 7.k.h f s t ;.  ",
"R.] ^ <.n.x.3.| ,.N.G.J.&.q 0 Y.",
"m.I R D.K F Z.X.>.W.t t W.p 4 s.",
"i.J O.t.h f 9. .&.f.8 8 f.A < 6.",
"i.S o.q.f s 2.} %.f.4 1 h.N ; 5.",
"v.h j Z.b j Z.V $.~.i u !.3 # w.",
"Y.f t n r.1.1.M c N a.l.x o # P.",
"  -.q 8 6 4 -.m > - & # X . C   ",
"  L.a 4 1 < ..v & # o . . : H.  ",
"    M.w < ; * # o X . . : z.    ",
"      K.A * o X . . # C H.      ",
"          P.w.:.:.w.P.          "
};
