/* XPM */
static char *telegram_xpm[] = {
/* columns rows colors chars-per-pixel */
"16 16 95 2 ",
"   c None",
".  c #0B74A8",
"X  c #0C75AA",
"o  c #1076A9",
"O  c #1178AC",
"+  c #0B7BB3",
"@  c #0B83BE",
"#  c #0C82BD",
"$  c #0C83BE",
"%  c #0C83BF",
"&  c #258CBF",
"*  c #0C84C0",
"=  c #0D84C0",
"-  c #0E84C0",
";  c #0F85C0",
":  c #0F86C3",
">  c #1386C0",
",  c #1588C2",
"<  c #1689C3",
"1  c #1288C4",
"2  c #1289C4",
"3  c #1389C4",
"4  c #138AC5",
"5  c #128AC6",
"6  c #138AC6",
"7  c #148BC6",
"8  c #148BC7",
"9  c #148CC7",
"0  c #158CC7",
"q  c #128BC8",
"w  c #168EC9",
"e  c #168ECA",
"r  c #178ECA",
"t  c #188FCA",
"y  c #1F91C9",
"u  c #1F92CB",
"i  c #1B92CE",
"p  c #1C92CC",
"a  c #1B94D0",
"s  c #1B94D1",
"d  c #1C95D1",
"f  c #1D97D4",
"g  c #1E98D3",
"h  c #258DC1",
"j  c #268EC2",
"k  c #2790C5",
"l  c #2294CD",
"z  c #2496CF",
"x  c #2A97CD",
"c  c #2099D4",
"v  c #2199D5",
"b  c #219AD5",
"n  c #229AD5",
"m  c #2C9ED7",
"M  c #2E9FD7",
"N  c #229CD8",
"B  c #249DD9",
"V  c #269ED9",
"C  c #2C9FD8",
"Z  c #2C9FD9",
"A  c #329FD4",
"S  c #27A0DC",
"D  c #29A1DD",
"F  c #3EA0D1",
"G  c #2AA3E0",
"H  c #2AA4E0",
"J  c #2BA4E0",
"K  c #2BA5E2",
"L  c #2CA6E3",
"P  c #2FA9E6",
"I  c #4BA5D3",
"U  c #41A6D8",
"Y  c #4AA8D8",
"T  c #4DA9D8",
"R  c #54B0DD",
"E  c #55B2E0",
"W  c #60B7E2",
"Q  c #7DC1E4",
"!  c #83C1E0",
"~  c #85C6E8",
"^  c #A0D0E9",
"/  c #A5D5EC",
"(  c #AFD8EE",
")  c #B5DEF2",
"_  c #D0E8F4",
"`  c #D4EAF5",
"'  c #E3F2F9",
"]  c #E6F3F9",
"[  c #E7F3F9",
"{  c #E4F3FA",
"}  c #EAF5FA",
"|  c #EBF5FB",
" . c #F1F8FC",
".. c #F6FBFD",
"X. c white",
/* pixels */
"                                ",
"          m C P P C C           ",
"      h L J J J J J J J k       ",
"    & G D D D D D D D D J h     ",
"    S V V V V V V V N V V S     ",
"  l n n n n n n n W ) E n n z   ",
"  y n n n g m ~ '  .X.R n n y   ",
"  f d a U / ..| Q ] X.A d d f   ",
"  d i Y ] X.( T | X. .p i i a   ",
"  , t e e x e ] X.X._ 2 t t ,   ",
"  $ 7 0 7 7 e F ` X.^ 2 7 7 >   ",
"    2 2 2 2 2 1 2 ! I 2 2 2     ",
"    o : : : : : : : : : : O     ",
"      . # # # # # # # % .       ",
"          + + # @ + +           ",
"                                "
};
