/* XPM */
static char *vlc_xpm[] = {
/* columns rows colors chars-per-pixel */
"16 16 108 2 ",
"   c None",
".  c #AD4402",
"X  c #AC4105",
"o  c #B14801",
"O  c #B54802",
"+  c #B54E03",
"@  c #B74C07",
"#  c #BE4900",
"$  c #B84E05",
"%  c #BF5301",
"&  c #BA520A",
"*  c #BE550B",
"=  c #BD550C",
"-  c #BC550D",
";  c #BD560D",
":  c #BE560C",
">  c #BF560C",
",  c #C14A00",
"<  c #C74B00",
"1  c #C44F00",
"2  c #D65F00",
"3  c #DA6000",
"4  c #D96006",
"5  c #DE6900",
"6  c #E06300",
"7  c #E36500",
"8  c #E46600",
"9  c #E96400",
"0  c #E26E00",
"q  c #E46D00",
"w  c #EA6900",
"e  c #EC6900",
"r  c #EB6F00",
"t  c #EC6D00",
"y  c #ED6D00",
"u  c #F06F00",
"i  c #E37200",
"p  c #E47200",
"a  c #E77400",
"s  c #EA7300",
"d  c #EA7500",
"f  c #ED7500",
"g  c #F07100",
"h  c #F17700",
"j  c #F17D00",
"k  c #F27C00",
"l  c #F37F00",
"z  c #F47F00",
"x  c #EC7812",
"c  c #9E7865",
"v  c #ED810D",
"b  c #F48400",
"n  c #F28504",
"m  c #F38B0A",
"M  c #F89000",
"N  c #F99200",
"B  c #F89300",
"V  c #FB9D00",
"C  c #F08312",
"Z  c #FA9A13",
"A  c #FC9B13",
"S  c #FB9C13",
"D  c #FA9D13",
"F  c #FC9C13",
"G  c #FC9D13",
"H  c #FCA813",
"J  c #FCAB13",
"K  c #FEB013",
"L  c #FEB513",
"P  c #FFB813",
"I  c #FDB219",
"U  c #E3872B",
"Y  c #E2852E",
"T  c #EA9139",
"R  c #ED973E",
"E  c #B68A6C",
"W  c #B08E7A",
"Q  c #CC8752",
"!  c #D3915C",
"~  c #C19069",
"^  c #D09C70",
"/  c #D6A77B",
"(  c #9DA2A5",
")  c #B7BBBF",
"_  c #D7B692",
"`  c #D5B394",
"'  c #D7C5B2",
"]  c #D7C6B6",
"[  c #E2C3A1",
"{  c #E2C4A0",
"}  c #B7BCC0",
"|  c #BFC4C7",
" . c #C5C9CB",
".. c #C5C9CC",
"X. c #C7CACD",
"o. c #C6CBCE",
"O. c #CACED1",
"+. c #CED3D7",
"@. c #D3D7D9",
"#. c #D2D7DA",
"$. c #D4D8DA",
"%. c #D5DADD",
"&. c #D6DADC",
"*. c #D8DDDF",
"=. c #D8DDE1",
"-. c #DBDFE1",
";. c #DCDFE2",
":. c #DEE3E6",
/* pixels */
"                                ",
"              s a               ",
"              T R               ",
"            ..:.-.)             ",
"            ..;.-.}             ",
"            / [ { ^             ",
"          + i g z q .           ",
"          % p u k d O           ",
"          ~ Y x C U E           ",
"        ( ..@.*.%.+.}           ",
"      7 W  .$.@.%.O.| c <       ",
"    v 2 @ ! ` ] ' _ Q X , 4     ",
"    n 0 1 3 8 9 t f 6 # 5 m     ",
"    M M k r w e t h k b M V     ",
"  I K K H Z S A F F S H L P     ",
"    o & - - - * * * * * - $     "
};
