/* XPM */
static char *bitcoin128_xpm[] = {
/* columns rows colors chars-per-pixel */
"16 16 96 2 ",
"   c None",
".  c #EF9324",
"X  c #F09324",
"o  c #F29424",
"O  c #F29524",
"+  c #F39524",
"@  c #F39525",
"#  c #F59625",
"$  c #F59725",
"%  c #F69725",
"&  c #F59726",
"*  c #F79825",
"=  c #F79826",
"-  c #F89825",
";  c #F89826",
":  c #F89926",
">  c #F89927",
",  c #F59829",
"<  c #F79928",
"1  c #F6992A",
"2  c #F6992B",
"3  c #F79A2A",
"4  c #F69A2D",
"5  c #F89928",
"6  c #F99A28",
"7  c #F99A29",
"8  c #F99B2A",
"9  c #F99B2B",
"0  c #F99B2C",
"q  c #F99C2C",
"w  c #F99D2F",
"e  c #F59C30",
"r  c #F69C30",
"t  c #F99D31",
"y  c #F99E31",
"u  c #F99E32",
"i  c #F99F34",
"p  c #F99F35",
"a  c #F9A035",
"s  c #F9A137",
"d  c #F9A33C",
"f  c #F9A43D",
"g  c #F9A43E",
"h  c #F8A43F",
"j  c #F9A53F",
"k  c #F7A442",
"l  c #F6A646",
"z  c #F8A542",
"x  c #FAA745",
"c  c #F6A94D",
"v  c #F9AA4B",
"b  c #F4A950",
"n  c #F4AA52",
"m  c #F6AD55",
"M  c #F5AD57",
"N  c #F9AD52",
"B  c #F5AF5B",
"V  c #F5AF5C",
"C  c #F5B05E",
"Z  c #FBB158",
"A  c #F4B161",
"S  c #F6B567",
"D  c #F4B66B",
"F  c #F5BA73",
"G  c #F2C288",
"H  c #F6C892",
"J  c #F6CA96",
"K  c #F5CC9A",
"L  c #F7CD9B",
"P  c #F6CFA0",
"I  c #F6D1A5",
"U  c #F7D4AB",
"Y  c #F6D5AC",
"T  c #F7D7B2",
"R  c #F7D9B4",
"E  c #F7DDBD",
"W  c #F7DEC0",
"Q  c #F5E0C7",
"!  c #F8E2C8",
"~  c #F8E4CC",
"^  c #F4E4D1",
"/  c #F9E9D6",
"(  c #F9EAD8",
")  c #FAF0E5",
"_  c #FAF1E5",
"`  c #F9F0E6",
"'  c #F9F1E7",
"]  c #F9F3EC",
"[  c #FBF6EF",
"{  c #F9F6F3",
"}  c #FAF6F2",
"|  c #FAF7F2",
" . c #FCF7F2",
".. c #FCFCFB",
"X. c #FDFCFB",
"o. c #FEFEFE",
/* pixels */
"                                ",
"          4 3 - - 3 3           ",
"      r - - - - 6 0 6 - 3       ",
"    r - - - 6 M B n 6 - - $     ",
"    - - 6 n P W G Q t 6 - -     ",
"  3 - 6 t z R X.) ) F 0 - - $   ",
"  3 6 a f x E / Z U X.k 6 - $   ",
"  - 6 t f v ] ) Y ( ) f w - -   ",
"  - - 6 a C o.J K  .T f t 6 -   ",
"  = - 6 D ~ X.S N ! | d i 0 $   ",
"  $ - - l H [ | | o.I w 6 - O   ",
"    - - - A K ^ M c 0 - - =     ",
"    O - - 6 a V 6 - - - - X     ",
"      O - - 6 6 - - - = .       ",
"          O $ - = $ O           ",
"                                "
};
