/* XPM */
static const char *inferno[] = {
/* columns rows colors chars-per-pixel */
"16 16 99 2 ",
"   c black",
".  c #060000",
"X  c #070707",
"o  c #0A0101",
"O  c #0C0101",
"+  c #0B0505",
"@  c #0E0902",
"#  c #090A0B",
"$  c #0E0E0E",
"%  c #190002",
"&  c #100B06",
"*  c #190F05",
"=  c #160C0D",
"-  c #131306",
";  c #191903",
":  c #1C1C03",
">  c #111213",
",  c #161011",
"<  c #151517",
"1  c #1B1B1B",
"2  c #1F1F1F",
"3  c #370304",
"4  c #3B0305",
"5  c #390506",
"6  c #291B08",
"7  c #301E04",
"8  c #222204",
"9  c #302009",
"0  c #22221B",
"q  c #232323",
"w  c #302D27",
"e  c #373731",
"r  c #353535",
"t  c #3B3B3B",
"y  c #4E0603",
"u  c #530306",
"i  c #510506",
"p  c #590304",
"a  c #730404",
"s  c #770607",
"d  c #492F0A",
"f  c #4B300C",
"g  c #4E330D",
"h  c #50350E",
"j  c #45351C",
"k  c #5E2627",
"l  c #4F4F0C",
"z  c #5E4417",
"x  c #66430C",
"c  c #754C0C",
"v  c #7D4F0E",
"b  c #606006",
"n  c #66660C",
"m  c #6D6D0A",
"M  c #737308",
"N  c #6D6D12",
"B  c #474747",
"V  c #4C4C4C",
"C  c #4F4F50",
"Z  c #5A5151",
"A  c #595959",
"S  c #5E5E5E",
"D  c #5F5F5F",
"F  c #794D4D",
"G  c #60605C",
"H  c #606163",
"J  c #666663",
"K  c #6D6D6F",
"L  c #7A7A7A",
"P  c #797C7C",
"I  c #970001",
"U  c #930204",
"Y  c #960707",
"T  c #87570B",
"R  c #9D680F",
"E  c #85850F",
"W  c #93930A",
"Q  c #AEAE09",
"!  c #AAA914",
"~  c #898968",
"^  c #949595",
"/  c #9F9F9F",
"(  c #A39E9E",
")  c #A7A7A7",
"_  c #B2B2B2",
"`  c #B6B6B6",
"'  c #B7BABA",
"]  c #BEBEBE",
"[  c #C3C3C3",
"{  c #C9C9C9",
"}  c #CACBCD",
"|  c #CDCDCD",
" . c #CFD0D0",
".. c #D4D7D7",
"X. c #DDDDDD",
"o. c #E8E8E8",
"O. c #EFEFEF",
"+. c #FBFBFB",
"@. c white",
/* pixels */
"                                ",
"    O 4 3 o       X 1 >         ",
"    y i Y s u . > S A B 2       ",
"    5 p a % U 5 P V     >       ",
"      = , + I k ' 1     ; :     ",
"    B L ^ ( F Z  .< 8 m Q E 9   ",
"  q S $ > H ..{ ..0 W b M ! N - ",
"  2 r   6 * H +.O.G ~ J e n l   ",
"    # 9 h 7 j ..@...K C L t     ",
"      f x R f _ @.H     1 A     ",
"      @ v g   ) X.1     1 t     ",
"        d c & _ [ #     $ X     ",
"        @ T z } ] +             ",
"          . w o.| >             ",
"            A @.O.t             ",
"          $ ` @.@./ X         # "
};
