/* XPM */
static char *chrome_xpm[] = {
/* columns rows colors chars-per-pixel */
"16 16 90 1 ",
"  c None",
". c #3B6CD6",
"X c #3B6DD6",
"o c #3D6ED7",
"O c #3D6ED8",
"+ c #3E6FD8",
"@ c #3F6FD8",
"# c #406ACD",
"$ c #476FCF",
"% c #4871CF",
"& c #426ED2",
"* c #436ED2",
"= c #4570D2",
"- c #4372D7",
"; c #4471D4",
": c #4471D5",
"> c #4773D6",
", c #4A73D1",
"< c #4E76D3",
"1 c #4F78D4",
"2 c #4F79D5",
"3 c #4172D9",
"4 c #4273D8",
"5 c #4273D9",
"6 c #4474D9",
"7 c #4A78D9",
"8 c #537AD4",
"9 c #728ED5",
"0 c #6E90DC",
"q c #7395DE",
"w c #7396DE",
"e c #5E8CE5",
"r c #5E93EF",
"t c #4B8BF5",
"y c #508EF5",
"u c #5E95F0",
"i c #6194EE",
"p c #709BEA",
"a c #6296F0",
"s c #6097F2",
"d c #6197F3",
"f c #6298F3",
"g c #6799F0",
"h c #6298F4",
"j c #639AF5",
"k c #639AF6",
"l c #649BF6",
"z c #659BF6",
"x c #669CF6",
"c c #679DF7",
"v c #699DF4",
"b c #689EF6",
"n c #689EF7",
"m c #699EF7",
"M c #6A9FF6",
"N c #76A2EF",
"B c #88A3E1",
"V c #8DA9E6",
"C c #83A6E9",
"Z c #91ADE9",
"A c #9DB0E0",
"S c #94B2EB",
"D c #8AB0F3",
"F c #88B1F6",
"G c #8FB5F5",
"H c #8FB6F5",
"J c #8DB5F6",
"K c #90B6F5",
"L c #94B7F4",
"P c #9BB9F1",
"I c #9DB9F0",
"U c #9BBDF7",
"Y c #9DBDF4",
"T c #9FBFF6",
"R c #ACC6F4",
"E c #A0C1F8",
"W c #A0C1F9",
"Q c #A1C2F9",
"! c #A2C3FA",
"~ c #A5C5F9",
"^ c #B9D0F7",
"/ c #B9D1F8",
"( c #C3D4F2",
") c #C4D4F2",
"_ c #C5D6F4",
"` c #C8D7F2",
"' c #C7D8F5",
"] c #C7D8F6",
"[ c #CADAF4",
"{ c #CBDAF4",
/* pixels */
"                ",
"     6555OO     ",
"   ;55555OOOo   ",
"  =;-5555OOO..  ",
" g%&;57ww8<222  ",
" me#&0)KH`ABVZS ",
" mm,$(ytty[IPTT ",
" mmi9HttttH^!!! ",
" xxmCHttttH/!!! ",
" zxxm]ttty{~!!! ",
" jzzzF]HH_R!!!! ",
" szzzzmHDp!!!!  ",
"  jzzzzzrL!!!!  ",
"   fzzzjN!!!W   ",
"    uszsU!!     ",
"                "
};
