/* XPM */
static char *mc_xpm[] = {
/* columns rows colors chars-per-pixel */
"16 16 155 2 ",
"   c None",
".  c black",
"X  c #030406",
"o  c #050504",
"O  c #000110",
"+  c #000111",
"@  c #000210",
"#  c #000211",
"$  c #08091A",
"%  c #0B0B1A",
"&  c #35363F",
"*  c #3A393C",
"=  c #071457",
"-  c #192F5F",
";  c #00036F",
":  c #000B6E",
">  c #000D6E",
",  c #000F6E",
"<  c #00126D",
"1  c #00106E",
"2  c #00136E",
"3  c #0D1969",
"4  c #3F5E7D",
"5  c #4C4E56",
"6  c #53535F",
"7  c #696665",
"8  c #807E7E",
"9  c #0E2A88",
"0  c #1A2183",
"q  c #04239C",
"w  c #10359C",
"e  c #0008B6",
"r  c #0A0FB6",
"t  c #0015B4",
"y  c #0019B6",
"u  c #011BB6",
"i  c #021DB4",
"p  c #001EB6",
"a  c #0022AE",
"s  c #0038A8",
"d  c #0021B1",
"f  c #0021B4",
"g  c #0024B6",
"h  c #002EBF",
"j  c #0929BC",
"k  c #043ABA",
"l  c #1833B3",
"z  c #1230BC",
"x  c #394B82",
"c  c #3F4290",
"v  c #3249AC",
"b  c #455798",
"n  c #727F9C",
"m  c #4B4BA3",
"M  c #4D59B1",
"N  c #507AAC",
"B  c #4A68BD",
"V  c #4B6ABF",
"C  c #677DBB",
"Z  c #747BB1",
"A  c #070ACF",
"S  c #040EDD",
"D  c #0034C7",
"F  c #0F34C1",
"G  c #003AC4",
"H  c #0022DD",
"J  c #0028DB",
"K  c #002ADF",
"L  c #0F34D7",
"P  c #0033DF",
"I  c #0A39D9",
"U  c #3A3FC5",
"Y  c #323BCD",
"T  c #000DE6",
"R  c #0002F3",
"E  c #0002F9",
"W  c #0002FC",
"Q  c #000AFC",
"!  c #000FFC",
"~  c #001DFC",
"^  c #0021E2",
"/  c #0027E5",
"(  c #0031E8",
")  c #0025FC",
"_  c #002BF8",
"`  c #0036F2",
"'  c #0030FC",
"]  c #0039FB",
"[  c #003DF9",
"{  c #003AFC",
"}  c #0C43CF",
"|  c #0C44D7",
" . c #1161D9",
".. c #0041F5",
"X. c #0042F4",
"o. c #0041F8",
"O. c #0043FA",
"+. c #0042FC",
"@. c #0044FD",
"#. c #0045FD",
"$. c #004AF8",
"%. c #0049FA",
"&. c #004AFA",
"*. c #0048FC",
"=. c #0049FC",
"-. c #004BFC",
";. c #004AFD",
":. c #0060FD",
">. c #0067FD",
",. c #5E65D5",
"<. c #6170C2",
"1. c #6D75CB",
"2. c #7E818C",
"3. c #7A86A6",
"4. c #7485CB",
"5. c #7A83F0",
"6. c #858181",
"7. c #87848B",
"8. c #89868B",
"9. c #88858C",
"0. c #8E8B8B",
"q. c #8C8A99",
"w. c #8D8A9A",
"e. c #928F90",
"r. c #918E9A",
"t. c #969393",
"y. c #979393",
"u. c #98959B",
"i. c #8D8BA6",
"p. c #8F9FA1",
"a. c #8D94A8",
"s. c #8A92AD",
"d. c #9296A3",
"f. c #9695A1",
"g. c #909FA1",
"h. c #9398A4",
"j. c #9499A4",
"k. c #9290A8",
"l. c #9E9BAA",
"z. c #9D9DA9",
"x. c #9297B7",
"c. c #A29FA0",
"v. c #A39FA6",
"b. c #A6A2A5",
"n. c #A4A1AC",
"m. c #A9A6AD",
"M. c #ABA7AD",
"N. c #ADA9AB",
"B. c #A8ABB0",
"V. c #B3AFB0",
"C. c #9B9ED3",
"Z. c #BABCC5",
"A. c #BDBFC5",
"S. c #BCBEC8",
"D. c #8697E0",
/* pixels */
"                                ",
"          B.b.8.9.v.n.          ",
"        u.& X . . o * r.3.      ",
"      2.$ O O O O O O $ 7.n     ",
"    j.= < , , ; < < < : 3 f.    ",
"  V.x a f u u e i g g t i b 6.  ",
"  m.q P D.v H S <.1.C.c J j y.  ",
"  i.h X.4.S.l ,.A.- s d ` K w.  ",
"  k.D -.C w x.0 Z.Z 5.Y O.( w.  ",
"  m.r Q U G A T k N 4 9 X.I e.  ",
"  N.m R E [ W ! +.$.$.' O.V 7   ",
"    l.z ] >.{ @.:.-.-.@. .d.    ",
"      a.F _ -.~ ) -.$.L s.5     ",
"        z.M } ^ / | V h.6       ",
"          y.c.g.p.0.8           ",
"                                "
};
