/* XPM */
static char *org_wireshark_Wireshark_xpm[] = {
/* columns rows colors chars-per-pixel */
"16 16 143 2 ",
"   c None",
".  c #053498",
"X  c #04369B",
"o  c #08389B",
"O  c #0538A0",
"+  c #063AA1",
"@  c #063CA5",
"#  c #053DA8",
"$  c #053EA9",
"%  c #1A449D",
"&  c #274C9F",
"*  c #0641AD",
"=  c #0641AE",
"-  c #0642AF",
";  c #1645A4",
":  c #0642B0",
">  c #0743B1",
",  c #0744B4",
"<  c #0745B6",
"1  c #0746B6",
"2  c #0749BA",
"3  c #074ABB",
"4  c #084CBD",
"5  c #084CBE",
"6  c #084DBE",
"7  c #3D5EA7",
"8  c #385DAB",
"9  c #2B59B4",
"0  c #3963B6",
"q  c #3666BF",
"w  c #617196",
"e  c #707F9F",
"r  c #546EAE",
"t  c #5174AB",
"y  c #5770AE",
"u  c #4066B3",
"i  c #5F7AB5",
"p  c #084FC1",
"a  c #0850C1",
"s  c #0850C2",
"d  c #0852C4",
"f  c #0852C5",
"g  c #0853C5",
"h  c #0853C6",
"j  c #0854C6",
"k  c #0854C7",
"l  c #0855C7",
"z  c #0857CA",
"x  c #0858CB",
"c  c #0A58CA",
"v  c #0A58CB",
"b  c #0859CC",
"n  c #085ACD",
"m  c #085BCE",
"M  c #075FD3",
"N  c #085DD0",
"B  c #095ED0",
"V  c #085ED1",
"C  c #085FD2",
"Z  c #0961D4",
"A  c #0962D5",
"S  c #0963D6",
"D  c #0964D7",
"F  c #0965D8",
"G  c #0966D9",
"H  c #0967D9",
"J  c #0967DA",
"K  c #0968DA",
"L  c #0968DB",
"P  c #0A68DA",
"I  c #096ADD",
"U  c #146FDC",
"Y  c #146FDD",
"T  c #1E72DB",
"R  c #1E76DF",
"E  c #2061C8",
"W  c #346AC6",
"Q  c #096DE0",
"!  c #096EE0",
"~  c #096FE1",
"^  c #0970E2",
"/  c #0E70E0",
"(  c #0D73E3",
")  c #0B75E6",
"_  c #0C75E6",
"`  c #1173E1",
"'  c #1673E0",
"]  c #1E77E0",
"[  c #1078E7",
"{  c #1A7AE5",
"}  c #277DE2",
"|  c #426EC0",
" . c #4C7BCC",
".. c #5C84B7",
"X. c #6E82A7",
"o. c #7784A1",
"O. c #7A88A6",
"+. c #7686A8",
"@. c #6283B2",
"#. c #6185B4",
"$. c #6E88B0",
"%. c #6B84BC",
"&. c #638ABA",
"*. c #7B8FB0",
"=. c #778BBC",
"-. c #6C91BD",
";. c #2883E7",
":. c #2B85E7",
">. c #2684E8",
",. c #2C86E8",
"<. c #3486E4",
"1. c #3E8CE6",
"2. c #3188E8",
"3. c #3389E8",
"4. c #388BE8",
"5. c #3B8CE8",
"6. c #3A8FEA",
"7. c #4588DF",
"8. c #5C8AD5",
"9. c #5E94DE",
"0. c #6A88C4",
"q. c #688BCD",
"w. c #7491CA",
"e. c #6E93D5",
"r. c #6193DD",
"t. c #6E99DC",
"y. c #769CDB",
"u. c #428FE6",
"i. c #4292E8",
"p. c #4392E9",
"a. c #4994E9",
"s. c #4B95E9",
"d. c #4896EA",
"f. c #4C97EA",
"g. c #579DEB",
"h. c #509CED",
"j. c #589FEC",
"k. c #669DE5",
"l. c #709FE1",
"z. c #5DA0EB",
"x. c #5DA2ED",
"c. c #74ABEC",
"v. c #8598C6",
/* pixels */
"                                ",
"                    h.>.[ ) _ ;.",
"                x.,.( ^ ! ! (   ",
"            j.f.{ ! I L L H T   ",
"          6.d.` I H D S S M     ",
"        p.g.' L D S N m m c     ",
"        f.} H S N m z l f E     ",
"      3.u.L S N c l f s 5 W     ",
"    :.d.U S N z f s 4 2 < q     ",
"    6.<.H N c l p 2 < : - 9     ",
"    d.U S m l s 2 < - $ @ ;     ",
"  3.1.H N c f 5 < - $ + . .     ",
"  3.] D N c p 2 : $ + o % &     ",
"  4.R 7.9.r.8. .| 0 u 8 7 r v.  ",
"p.j.c.k.l.t.y.e.q.w.0.%.i y =.  ",
"  -.&...#.@.t $.*.X.+.O.e o.w   "
};
