/* XPM */
static const char *mini_steam[] = {
/* columns rows colors chars-per-pixel */
"16 16 139 2 ",
"   c #061734",
".  c #071936",
"X  c #0B1A31",
"o  c #0B1A32",
"O  c #0C1A32",
"+  c #0C1B32",
"@  c #0C1B33",
"#  c #0E1C30",
"$  c #0F1C30",
"%  c #081936",
"&  c #041738",
"*  c #04163C",
"=  c #05173D",
"-  c #04163F",
";  c #061839",
":  c #06193A",
">  c #07193E",
",  c #10213C",
"<  c #14243F",
"1  c #051740",
"2  c #061846",
"3  c #071946",
"4  c #081A43",
"5  c #081A47",
"6  c #091B48",
"7  c #0A1C48",
"8  c #0A1C49",
"9  c #0A1F4F",
"0  c #0C2050",
"q  c #0C2150",
"w  c #0D2251",
"e  c #142550",
"r  c #10285A",
"t  c #10295B",
"y  c #122A5B",
"u  c #21304A",
"i  c #283858",
"p  c #112F63",
"a  c #123164",
"s  c #133164",
"d  c #133165",
"f  c #10396E",
"g  c #133B6F",
"h  c #133C70",
"j  c #143C70",
"k  c #293B65",
"l  c #243A68",
"z  c #213E6E",
"x  c #13477A",
"c  c #14487B",
"v  c #194C7E",
"b  c #1B4D7F",
"n  c #3C4B68",
"m  c #204778",
"M  c #404E67",
"N  c #47577B",
"B  c #42557C",
"V  c #525F76",
"C  c #0F5084",
"Z  c #125286",
"A  c #145487",
"S  c #135E91",
"D  c #125F92",
"F  c #136093",
"G  c #116D9F",
"H  c #2C719F",
"J  c #3C729C",
"K  c #106DA0",
"L  c #116EA1",
"P  c #136EA0",
"I  c #136FA2",
"U  c #137BAD",
"Y  c #137DAF",
"T  c #137EB0",
"R  c #3376A2",
"E  c #475F88",
"W  c #56668A",
"Q  c #467098",
"!  c #616E8C",
"~  c #66718B",
"^  c #637394",
"/  c #737F9A",
"(  c #4A7CA3",
")  c #4986AD",
"_  c #7E9BB7",
"`  c #848DA1",
"'  c #878FA5",
"]  c #859CB6",
"[  c #909BB2",
"{  c #97A0B4",
"}  c #99A0B0",
"|  c #9BA2B1",
" . c #98A0B4",
".. c #9EA5B4",
"X. c #9FA8BB",
"o. c #A6ADBD",
"O. c #A7AEBC",
"+. c #AEB4BE",
"@. c #8DACC5",
"#. c #95A9C0",
"$. c #98B4CA",
"%. c #99B5CB",
"&. c #A4B3C7",
"*. c #B3B8C6",
"=. c #B5BBC4",
"-. c #B4BAC6",
";. c #B7BCC9",
":. c #B4BFCF",
">. c #BABFCA",
",. c #ACBFD1",
"<. c #BDC2CE",
"1. c #B5C3D4",
"2. c #B6C7D7",
"3. c #B8C1D1",
"4. c #BEC5D3",
"5. c #BDC6D5",
"6. c #C1C5CE",
"7. c #C4C8D1",
"8. c #CBCED6",
"9. c #C3CEDB",
"0. c #CED1D9",
"q. c #CCD0DA",
"w. c #CFD4DE",
"e. c #D2D5DE",
"r. c #D5D9E3",
"t. c #DADDE5",
"y. c #E3E6EC",
"u. c #ECEEF1",
"i. c #EDEFF3",
"p. c #EEF2F6",
"a. c #EFF2F6",
"s. c #F7F7F9",
"d. c #F6F8FA",
"f. c #F8F9FA",
"g. c #FBFBFC",
"h. c #FBFCFD",
"j. c #FEFEFE",
"k. c #FFFFFF",
"l. c None",
/* pixels */
"l.l.l.l.l.# # # # # # l.l.l.l.l.",
"l.l.l.l.@ @ @ @ @ @ X X l.l.l.l.",
"l.l.% % % % % %   , u <   . l.l.",
"l.l.; ; ; ; ; & M +.6.-.V ; l.l.",
"l.> > > > > = i 7...| | 8.n = l.",
"4 4 4 4 4 4 = ~ -.>.j.q.O.` 1 4 ",
"2 5 7 7 7 6 e *.;.<.j.e.O.' 2 7 ",
"! k 0 9 0 9 / g.i.{ X. .q.N 9 0 ",
"g.t.[ B l W y.j.j.s.w.4.^ y y y ",
"j.j.j.i.r.3.5.h.h.:.E z p a a a ",
"#.1.a.j.j.f.&.9.] m f g j j j g ",
"l.b Q 2.a.d.,._ b x c c c c c l.",
"l.l.C J %.%.@.( Z A A A A A l.l.",
"l.l.D D H ) R F F F F F F D l.l.",
"l.l.l.l.G K K K K K K K l.l.l.l.",
"l.l.l.l.l.U Y Y T Y U l.l.l.l.l."
};
