/* XPM */
static char *tigervnc_xpm[] = {
/* columns rows colors chars-per-pixel */
"16 16 113 2 ",
"   c None",
".  c #000000",
"X  c #020202",
"o  c #080402",
"O  c #0D0D0D",
"+  c #100803",
"@  c #160B04",
"#  c #2D1708",
"$  c #351A09",
"%  c #391C09",
"&  c #251910",
"*  c #382010",
"=  c #313525",
"-  c #353434",
";  c #40200B",
":  c #41200B",
">  c #42210B",
",  c #4D260D",
"<  c #542A0E",
"1  c #552A0E",
"2  c #562B0E",
"3  c #5F2F10",
"4  c #613010",
"5  c #633110",
"6  c #643212",
"7  c #6C3612",
"8  c #723913",
"9  c #733A13",
"0  c #3C5537",
"q  c #7F4117",
"w  c #79401A",
"e  c #59402F",
"r  c #514E4B",
"t  c #5C5C5B",
"y  c #615F5E",
"u  c #556245",
"i  c #59784C",
"p  c #697A52",
"a  c #646464",
"s  c #666565",
"d  c #6E7066",
"f  c #7F7C7A",
"g  c #864316",
"h  c #874316",
"j  c #8E4717",
"k  c #944A18",
"l  c #984C19",
"z  c #A4511B",
"x  c #B1591F",
"c  c #B3591E",
"v  c #B95C1E",
"b  c #BB5D1F",
"n  c #AA6333",
"m  c #C26120",
"M  c #C46220",
"N  c #C86421",
"B  c #D06722",
"V  c #D66A23",
"C  c #DB6F26",
"Z  c #E17025",
"A  c #E37126",
"S  c #E77326",
"D  c #F27928",
"F  c #F57A28",
"G  c #F77B29",
"H  c #F87C29",
"J  c #FA7D29",
"K  c #FC7D29",
"L  c #FD7E2A",
"P  c #FF7F2A",
"I  c #B47246",
"U  c #B5744A",
"Y  c #529C54",
"T  c #549F56",
"R  c #618E56",
"E  c #FF802C",
"W  c #FF8533",
"Q  c #FF8534",
"!  c #FF8D41",
"~  c #FF934C",
"^  c #FF9C5A",
"/  c #C8906A",
"(  c #FFA468",
")  c #FFAB73",
"_  c #FFAD76",
"`  c #FFB17E",
"'  c #929191",
"]  c #929490",
"[  c #949494",
"{  c #9D9D9D",
"}  c gray62",
"|  c #A09E9D",
" . c #A9A9A8",
".. c #B6B6B5",
"X. c #FFBB8D",
"o. c #CCBDB3",
"O. c #E0BEA7",
"+. c #9ED685",
"@. c #EEC4A9",
"#. c #C3C3C2",
"$. c #C9C6C3",
"%. c #D3CFCB",
"&. c #FEDFCB",
"*. c #E3DAD3",
"=. c #FFE2CF",
"-. c #E6E5E4",
";. c #EAE9E9",
":. c #FFF0E7",
">. c #F5F5F4",
",. c #FFF7F2",
"<. c #FFFBF8",
"1. c #FDFDFD",
"2. c white",
/* pixels */
"                                ",
"      . . . . . . . . . .       ",
"    r O.X./ ^ n c L L L S ,     ",
"  . @.6 L V L < J c 4 ; 4 v .   ",
"  . X.8 L W C v I f $.-.%.o..   ",
"  . ) w &.;.<.*.| a a t ..2..   ",
"  . ^ e 2.{ ] R +.= O [ ,.` .   ",
"  . ! & - . p Y T u #.2.( L .   ",
"  . E g y { d i 0  .2.=.L Z .   ",
"  . L L N * ' >.2.2.:.~ L M .   ",
"  . L L L G g q U _ Q L L < .   ",
"  . L D k J L L L L L G 7 o .   ",
"  . S L z % j B Z m 9 @ ; ; .   ",
"    , S L D l , # $ ; 3 < +     ",
"      . . . . . . . . . .       ",
"                                "
};
