/* XPM */
static char *thunderbird_xpm[] = {
/* columns rows colors chars-per-pixel */
"16 16 138 2 ",
"   c None",
".  c #2D134F",
"X  c #251152",
"o  c #291357",
"O  c #2C357D",
"+  c #57466C",
"@  c #475573",
"#  c #2C4693",
"$  c #3A479A",
"%  c #3B479A",
"&  c #3A489B",
"*  c #384A9D",
"=  c #3D509E",
"-  c #3049A3",
";  c #344EA2",
":  c #314DA6",
">  c #2A53A4",
",  c #2658AE",
"<  c #2659AF",
"1  c #3350A4",
"2  c #3859A6",
"3  c #375DA9",
"4  c #325DAC",
"5  c #395FA8",
"6  c #2756B0",
"7  c #2559B0",
"8  c #245CB4",
"9  c #245FB7",
"0  c #235EB9",
"q  c #245DB8",
"w  c #3760AB",
"e  c #3361AD",
"r  c #3662AC",
"t  c #3763AC",
"y  c #3564AE",
"u  c #3665AE",
"i  c #3766AE",
"p  c #3964AB",
"a  c #2260BA",
"s  c #2260BB",
"d  c #2560B8",
"f  c #2162BD",
"g  c #2263BD",
"h  c #2264BE",
"j  c #3463B2",
"k  c #3667B0",
"l  c #356AB2",
"z  c #346FB5",
"x  c #2A73BF",
"c  c #3672B5",
"v  c #3470B6",
"b  c #3978B6",
"n  c #3879B6",
"m  c #3372B8",
"M  c #3472B8",
"N  c #3171BC",
"B  c #3A76BB",
"V  c #4D588F",
"C  c #4675BF",
"Z  c #4678BD",
"A  c #7771AF",
"S  c #777EB8",
"D  c #2366C0",
"F  c #2469C1",
"G  c #246AC1",
"H  c #256BC2",
"J  c #256DC2",
"K  c #266FC4",
"L  c #2571C1",
"P  c #2576C7",
"I  c #2A71C4",
"U  c #2E7CC0",
"Y  c #287EC4",
"T  c #2777C8",
"R  c #267FCB",
"E  c #307DCB",
"W  c #317FCC",
"Q  c #3686BF",
"!  c #3988BE",
"~  c #2D83C2",
"^  c #2286CB",
"/  c #208FCD",
"(  c #3182C0",
")  c #3284C1",
"_  c #368CC1",
"`  c #3382CD",
"'  c #308CCE",
"]  c #228ED0",
"[  c #308FD0",
"{  c #3A8ED3",
"}  c #3B90D0",
"|  c #3A91D4",
" . c #408BC7",
".. c #5685C0",
"X. c #5980C1",
"o. c #4E95C3",
"O. c #4496D2",
"+. c #419CDA",
"@. c #439FDC",
"#. c #44A1DD",
"$. c #47A5DD",
"%. c #59A0D0",
"&. c #9B92A6",
"*. c #969BC9",
"=. c #83A4D6",
"-. c #84A7D5",
";. c #8CA8D6",
":. c #88ACD5",
">. c #9DCADD",
",. c #B6C0DE",
"<. c #ABC7E4",
"1. c #CCCCCD",
"2. c #D7D7D7",
"3. c #D9D8DA",
"4. c #DBDADB",
"5. c #DCDBDC",
"6. c #DDDDDD",
"7. c #DEDEDF",
"8. c #C0CBE5",
"9. c #CDD0E3",
"0. c #D7DBE1",
"q. c #DFE2E4",
"w. c #D4E2EA",
"e. c #D2E4EE",
"r. c #DCE4F1",
"t. c #D1E8F2",
"y. c #E0E0E1",
"u. c #E2E2E2",
"i. c #E4E4E4",
"p. c #E8EBEC",
"a. c #EDEDED",
"s. c #E0E6F1",
"d. c #E6EFF5",
"f. c #F3F3F3",
"g. c #F3F6F8",
"h. c #F8F8F8",
"j. c #F9F9F9",
"k. c gray98",
/* pixels */
"          $. .                  ",
"        O.@.{ E F a a q         ",
"      N #.| ` F g g g g a       ",
"    9 +.[ ' I a 0 g h D F J     ",
"  9 X.} @ W g 6 - : K T R P d   ",
"< C 0.%.B =.8.,.*.A Z ] ^ L x e ",
"< ;.w.>.r.k.k.k.k.k.t./ Y U ( p ",
"7 -.k.y.k.k.k.k.k.k.p.~ ) Q b 5 ",
"j <.k.k.y.k.k.f.7.3.q._ ! b y w ",
"4 k.k.k.a.2.7.i.k.k.e.o.v k y t ",
"> s.k.k.k.k.k.k.k.k.g.:.v z l t ",
"  V &.3.k.k.k.k.k.k.d...3 m m   ",
"  # o . + 1.5.k.k.k.k.S 3 y y   ",
"    O X         1.5.9.% & 2     ",
"                    = * %       ",
"                  1 ;           "
};
