/* XPM */
static const char *mini_prism[] = {
/* columns rows colors chars-per-pixel */
"16 16 104 2 ",
"   c #4D4D3F3F3333",
".  c #4E4E41403534",
"X  c #515141413434",
"o  c #575744433534",
"O  c #525244443838",
"+  c #68684D4D3737",
"@  c #7A7A57573B3B",
"#  c #7B7B58583B3A",
"$  c #7A7A58583C3C",
"%  c #5A5A4D4D4242",
"&  c #75756A6A6262",
"*  c #88886D6D5656",
"=  c #8F8F77775E5E",
"-  c #818177776F6F",
";  c #949479796565",
":  c #DFDF62627777",
">  c #DFDE63637878",
",  c #DFDE64647877",
"<  c #E2E26A6A7C7C",
"1  c #EAEA75757171",
"2  c #858583834949",
"3  c #F8F88D8D6969",
"4  c #FBFB91916868",
"5  c #FAFA97976868",
"6  c #FAF99F9E6969",
"7  c #FBFA99997373",
"8  c #F6F6BDBD6B6B",
"9  c #9696C3C35D5D",
"0  c #9B9BC1C16665",
"q  c #9998CDCD6262",
"w  c #9D9DCFCF6767",
"e  c #A09FD1D16C6B",
"r  c #F3F2DAD96D6D",
"t  c #6F6F48488C8C",
"y  c #707049488C8B",
"u  c #71714C4B8E8E",
"i  c #60605D5D9F9F",
"p  c #717150509191",
"a  c #4E4E7777B7B7",
"s  c #4B4B7C7CBCBC",
"d  c #99997E7EAEAE",
"f  c #7A7AB2B29292",
"g  c #4F4F8080B9B9",
"h  c #5C5B8B8BBBBB",
"j  c #66669B9BA4A4",
"k  c #58578686C1C1",
"l  c #77779A9AC7C7",
"z  c #919189898181",
"x  c #9D9D97979191",
"c  c #ADAD98988686",
"v  c #B1B19C9B8C8C",
"b  c #B9B9A6A69797",
"n  c #A9A99696B8B8",
"m  c #8989B8B8A3A3",
"M  c #9595BFBFA6A6",
"N  c #E8E890909E9E",
"B  c #FCFCB1B19494",
"V  c #C2C2BDBDB9B9",
"C  c #F9F9B4B4A1A1",
"Z  c #EDEDA5A5B1B1",
"A  c #B6B5DBDB8E8E",
"S  c #B7B7DCDC9090",
"D  c #ADADCFCFB6B6",
"F  c #EDEDDCDC8B8B",
"G  c #F1F1D9D98484",
"H  c #C0BFE0DF9D9D",
"J  c #CACAC0C0B8B8",
"K  c #C5C5E2E2A5A5",
"L  c #F8F8E9E9A6A6",
"P  c #F8F8EAEAAAAA",
"I  c #F9F9ECECB2B2",
"U  c #9595AAAAD0D0",
"Y  c #B2B2D3D3C0C0",
"T  c #BABAD7D7C6C6",
"R  c #C8C8C3C3C2C2",
"E  c #D5D5D2D2C1C1",
"W  c #D6D6D2D2D2D2",
"Q  c #D8D8D5D5D5D5",
"!  c #D1D1D2D2D9D9",
"~  c #DFDFDCDCDADA",
"^  c #DFDFDFDFDFDF",
"/  c #FEFED9D9CBCB",
"(  c #E2E2DFDFDEDE",
")  c #DBDBEDEDC7C7",
"_  c #CFCFE2E2DFDF",
"`  c #FBFBEAEACACA",
"'  c #E3E3E1E1DFDF",
"]  c #C2C2D2D2E8E8",
"[  c #E5E5DEDEEAEA",
"{  c #E4E4E4E4E4E4",
"}  c #EBEBE5E5EFEF",
"|  c #EBEBEAEAEAEA",
" . c #F9F9E2E2E6E6",
".. c #F0F0EEEEEAEA",
"X. c #FAFAE9E9ECEC",
"o. c #ECECF6F6E2E2",
"O. c #EFEFF4F4E4E4",
"+. c #F1F1F0F0EFEF",
"@. c #F6F6F6F6F6F6",
"#. c #FDFDF2F2F0F0",
"$. c #FFFFF6F6F3F3",
"%. c #F7F7FBFBF2F2",
"&. c #F1F1F5F5FAFA",
"*. c white",
/* pixels */
"*.*.*.*.*.*.*.O.X.*.*.*.*.*.*.*.",
"*.*.*.*.*.o.A q > N  .*.*.*.*.*.",
"*.*.*.%.H q q q : : , C $.*.*.*.",
"*.*.) e q q q q : : 1 4 7 / *.*.",
"*.E 0 q q q w K Z < 3 4 4 6 ` *.",
"*.b $ 2 9 S %.*.*.#.B 5 8 r I *.",
"*.v @ @ = ' *.*.*.*...G r r P *.",
"*.c @ @ ; W Q | @.{ ^ F r r L *.",
"*.c @ @ ; W W W ^ ^ ^ M f f D *.",
"*.v @ @ * W W W ^ ^ ^ m f f Y *.",
"*.b # + X & R W ^ ! l g j f T *.",
"*.J o       O x n p a s s h _ *.",
"*.*.V %         t t i s k ] *.*.",
"*.*.*.+.z .     t t u U &.*.*.*.",
"*.*.*.*.*.~ - . y d [ *.*.*.*.*.",
"*.*.*.*.*.*.*.( } *.*.*.*.*.*.*."
};
