/* XPM */
static char *run[] = {
/* columns rows colors chars-per-pixel */
"32 32 28 1 ",
"  c None",
". c #868686",
"X c gray3",
"o c #C0C0C0",
"O c black",
"+ c navy",
"@ c #E7E7D6",
"# c #EAEAEA",
"$ c #800000",
"% c #660000",
"& c #FFFBF0",
"* c #CC3300",
"= c #FFFF99",
"- c #FF9999",
"; c #FF3300",
": c #9933CC",
"> c #800080",
", c #CC99CC",
"< c #FF6633",
"1 c gray40",
"2 c red",
"3 c #FF9900",
"4 c white",
"5 c #ADA990",
"6 c gray60",
"7 c magenta",
"8 c #555555",
"9 c #CC0000",
/* pixels */
"                                ",
"                                ",
"                                ",
"                                ",
"         ..................X    ",
"         .oooooooooooooooooO    ",
"         .o+++++++++@O#X@OoO    ",
"         .o+++++++++OOOOOOoX    ",
"         .oooooooooooooooooO    ",
"         .o@@@@@@@@@@@@@@@.X    ",
"    $$$$$%%%%%%@&&&&&&&&&&.O    ",
"    $*=-;;**$$%@:>,&&&$<&&.X    ",
"     11111111O@@,,>&&23*&&.O    ",
"     1#4##o56O@&7:>&&$2$&&.X    ",
"     1#4ooo56X&,:>:&&o3<&&.O    ",
"     1#411156O&&&&&&&&&&&&.X    ",
"      1#41o6O&&&...&&...&&.O    ",
"       1#1oO&&&&&&&&&&&&&&.X    ",
"       1@ooO&&&&&&&&&&&&&&.O    ",
"       1@6oO...............X    ",
"      1@4oo6OOOOXOOXOOXOOXOO    ",
"     1@&4.o56X                  ",
"     1@4..156O                  ",
"     1@.1O116O                  ",
"     18888888O                  ",
"    $*--;;999%O                 ",
"    OOOOOOOOOOO                 ",
"                                ",
"                                ",
"                                ",
"                                ",
"                                "
};
