/* XPM */
static char *shutdown[] = {
/* columns rows colors chars-per-pixel */
"32 32 23 1 ",
"  c None",
". c #868686",
"X c #C0C0C0",
"o c #777777",
"O c #B2B2B2",
"+ c gray80",
"@ c #F8F8F8",
"# c #D7D7D7",
"$ c gray60",
"% c #EAEAEA",
"& c #E7E7D6",
"* c gray30",
"= c gray59",
"- c gray26",
"; c #330066",
": c navy",
"> c black",
", c #3300CC",
"< c blue",
"1 c cyan",
"2 c yellow",
"3 c #555555",
"4 c white",
/* pixels */
"                                ",
"                                ",
"                                ",
"                                ",
"         ....                   ",
"       ..XXXXoo                 ",
"     ..O++X+XXOooooooo          ",
"    .@@@#++++XXO$ooOXXoo        ",
"    .@%&&&@%++XXOO$..XXXoo      ",
"    .@&*.X&&%@++XOO$=..XXO-     ",
"    .@&;::.X&&@@+XOO$=.>X=.>    ",
"    .@%;,,::.X+#&@XOO.o>$=.>    ",
"    .@&;,,,,::.O#+@$=.o>$=.>    ",
"    .@&;,<<1,,::o+X$=.o>$=.>    ",
"    .@&;,1<1<<1,:+X$=.o>$=.>    ",
"    .@%;,<1@<1,,:XX$=.o>$=.>    ",
"    .@&;,1<21<<,:XX$=.o>$=.>    ",
"    .@&;,,<1<<,,:XX$=.o>$=.>    ",
"    .@&::,,1<1<,:XX$=.o>$=.>    ",
"    .$%&X::,,,,,:XX$=.o>$=o>    ",
"    .3o$&&X::,,,:XX$=.o>$o>     ",
"      33o$++X::::XX$=.o>o>      ",
"        33o$++X::XX$=.o>>       ",
"          33o$XXXXX$=.o>        ",
"            33o$XXX$=.o>        ",
"              33o$$$=oo>        ",
"                33o==>>         ",
"                  33>           ",
"                                ",
"                                ",
"                                ",
"                                "
};
